<?xml version="1.0" encoding="utf-8"?>
<!-- Generator: Adobe Illustrator 25.2.3, SVG Export Plug-In . SVG Version: 6.00 Build 0)  -->
<svg version="1.1" id="Layer_1" xmlns="http://www.w3.org/2000/svg" xmlns:xlink="http://www.w3.org/1999/xlink" x="0px" y="0px"
	 viewBox="0 0 499.2 179.1" style="enable-background:new 0 0 499.2 179.1;" xml:space="preserve">
<style type="text/css">
	.st0{fill:#FFFFFF;}
	.st1{fill:#F16277;}
	.st2{font-family:'Gotham-Black';}
	.st3{font-size:53.6359px;}
	.st4{fill:#2E2F37;}
	.st5{fill:#231F20;}
</style>
<g>
	
		<image style="overflow:visible;opacity:0.3;" width="2035" height="685" xlink:href="785B073E.png"  transform="matrix(0.24 0 0 0.24 8.52 10.0053)">
	</image>
	<g>
		<path class="st0" d="M473.8,156.3H25.7c-2.8,0-5-2.2-5-5V27.2c0-2.8,2.2-5,5-5h448.1c2.8,0,5,2.2,5,5v124.1
			C478.8,154.1,476.6,156.3,473.8,156.3z"/>
	</g>
</g>
<text transform="matrix(1 0 0 1 195.3281 86.5136)"><tspan x="0" y="0" class="st1 st2 st3">Made</tspan><tspan x="0" y="42.4" class="st4 st2 st3">Different</tspan></text>
<path class="st4" d="M152.7,67.6c-1.4,1.1-2.8,2.2-4.1,3.3c-4.6,3.6-9.3,7.2-13.9,10.8h4.3c10.8,0,17.9,6,17.9,16.4v0.2
	c0,10.5-7.2,16.4-17.9,16.4h-7.3V84.1l0,0c-0.8,0.6-1.7,1.3-2.5,1.9l-15.5,11.8l-19.7,15L113.6,99v31.8h24.7
	c23.4,0,37.1-13.9,37.1-32.7v-0.2C175.4,83.3,167.3,72,152.7,67.6z"/>
<path class="st5" d="M162,84L162,84L162,84C162,84,162,84,162,84C162,84,162,84,162,84z"/>
<path class="st5" d="M131.6,84c-0.8,0.6-1.7,1.3-2.5,1.9L131.6,84L131.6,84z"/>
<path class="st1" d="M131.6,74.7V48.4h-19L97.1,73.6L81.6,48.4h-19v65h17.6V76.3l16.5,25.3h0.4l16.5-25.3l0.1-0.1v13.6
	c0.6-0.4,1.2-0.9,1.8-1.3L131.6,76l19.6-15L131.6,74.7z"/>
</svg>
