<?xml version="1.0" encoding="utf-8"?>
<!-- Generator: Adobe Illustrator 25.2.3, SVG Export Plug-In . SVG Version: 6.00 Build 0)  -->
<svg version="1.1" id="Layer_1" xmlns="http://www.w3.org/2000/svg" xmlns:xlink="http://www.w3.org/1999/xlink" x="0px" y="0px"
	 viewBox="0 0 301.1 300" style="enable-background:new 0 0 301.1 300;" xml:space="preserve">
<style type="text/css">
	.st0{fill:#2E2F37;}
	.st1{fill:#231F20;}
	.st2{fill:#F16277;}
</style>
<path class="st0" d="M233.9,99c-3.4,2.7-6.8,5.4-10.2,8.1c-11.4,9-22.8,17.9-34.4,26.6H200c26.6,0,44.2,14.9,44.2,40.6v0.5
	c0,25.9-17.6,40.6-44.2,40.6h-18.1v-75.8l-0.1-0.1c-2.1,1.6-4.1,3.1-6.2,4.6l-38.2,29.2l-48.5,37l48.5-33.8v78.4h61
	c57.8,0,91.5-34.4,91.5-80.7v-0.5C289.9,137.6,269.8,109.7,233.9,99z"/>
<path class="st1" d="M181.8,139.4c-2.1,1.6-4.1,3.1-6.2,4.6L181.8,139.4L181.8,139.4z"/>
<path class="st2" d="M181.9,116.5v-65h-47l-38.3,62.1L58.3,51.5h-47V212h43.6v-91.7l40.8,62.4h0.9l40.8-62.5l0.2-0.3v33.5
	c1.5-1.1,3-2.2,4.4-3.3l39.8-30.4l48.3-36.9L181.9,116.5z"/>
</svg>
