<?xml version="1.0" encoding="utf-8"?>
<!-- Generator: Adobe Illustrator 25.2.3, SVG Export Plug-In . SVG Version: 6.00 Build 0)  -->
<svg version="1.1" id="Layer_1" xmlns="http://www.w3.org/2000/svg" xmlns:xlink="http://www.w3.org/1999/xlink" x="0px" y="0px"
	 viewBox="0 0 100 26.9" style="enable-background:new 0 0 100 26.9;" xml:space="preserve">
<style type="text/css">
	.st0{fill:#F16277;}
	.st1{font-family:'Gotham-Black';}
	.st2{font-size:12.7141px;}
	.st3{fill:#2E2F37;}
	.st4{fill:#231F20;}
</style>
<text transform="matrix(1 0 0 1 37.3182 13.2392)"><tspan x="0" y="0" class="st0 st1 st2">Made</tspan><tspan x="0" y="10.1" class="st3 st1 st2">Different</tspan></text>
<path class="st3" d="M27.2,8.8c-0.3,0.3-0.7,0.5-1,0.8c-1.1,0.9-2.2,1.7-3.3,2.6h1c2.6,0,4.2,1.4,4.2,3.9v0c0,2.5-1.7,3.9-4.2,3.9
	h-1.7v-7.3l0,0c-0.2,0.1-0.4,0.3-0.6,0.4L18,15.9l-4.7,3.6l4.7-3.3v7.5h5.9c5.5,0,8.8-3.3,8.8-7.8v0C32.6,12.5,30.7,9.8,27.2,8.8z"
	/>
<polygon class="st4" points="29.4,12.6 29.4,12.7 29.4,12.6 29.4,12.6 "/>
<path class="st4" d="M22.2,12.6c-0.2,0.1-0.4,0.3-0.6,0.4L22.2,12.6L22.2,12.6z"/>
<path class="st0" d="M22.2,10.4V4.2h-4.5l-3.7,6l-3.7-6H5.8v15.4H10v-8.8l3.9,6H14l3.9-6l0,0V14c0.1-0.1,0.3-0.2,0.4-0.3l3.8-2.9
	l4.6-3.5L22.2,10.4z"/>
</svg>
